<svg width="233" height="180" viewBox="0 0 233 180" fill="none" xmlns="http://www.w3.org/2000/svg">
<g filter="url(#filter0_d)">
<path d="M151.456 70L165.345 78.74C178.173 86.87 185.703 102.48 183.67 120.4C180.666 146.69 158.246 168 133.602 168C126.162 168.049 118.864 165.967 112.573 162L98.6543 153.25C104.944 157.219 112.243 159.301 119.683 159.25C144.387 159.25 166.827 137.94 169.811 111.64C171.824 93.69 164.284 78.07 151.456 70Z" fill="#A00054"/>
<path d="M151.456 70L165.345 78.74C178.173 86.87 185.703 102.48 183.67 120.4C180.666 146.69 158.246 168 133.602 168C126.162 168.049 118.864 165.967 112.573 162L98.6543 153.25C104.944 157.219 112.243 159.301 119.683 159.25C144.387 159.25 166.827 137.94 169.811 111.64C171.824 93.69 164.284 78.07 151.456 70Z" stroke="#7E0042" stroke-width="8" stroke-miterlimit="10"/>
<path d="M117.349 96.9002L114.285 106.81L120.183 111.6L125.06 107.17L126.121 96.7002L117.349 96.9002Z" fill="#E88FBA"/>
<path d="M126.412 112.75L123.357 122.66L129.255 127.45L134.132 123.02L135.184 112.55L126.412 112.75Z" fill="#E88FBA"/>
<path d="M130.458 64C155.162 64 172.776 85.32 169.792 111.6C166.808 137.88 144.367 159.21 119.663 159.21C94.9595 159.21 77.3455 137.9 80.3296 111.6C83.3136 85.3 105.754 64 130.458 64ZM135.465 127.53C137.564 125.395 138.889 122.622 139.23 119.65C139.613 116.86 138.895 114.031 137.227 111.76C136.429 110.71 135.398 109.859 134.215 109.274C133.031 108.689 131.728 108.386 130.408 108.39H128.405L129.497 98.73H136.556C137.424 98.7031 138.252 98.363 138.887 97.7727C139.522 97.1824 139.922 96.382 140.011 95.52C140.081 95.1293 140.065 94.7281 139.963 94.3444C139.862 93.9606 139.678 93.6035 139.425 93.298C139.171 92.9924 138.854 92.7457 138.495 92.5751C138.136 92.4044 137.745 92.314 137.347 92.31H130.338L130.698 89.09C130.77 88.6953 130.755 88.2896 130.652 87.9017C130.549 87.5138 130.362 87.1533 130.104 86.8459C129.846 86.5384 129.523 86.2916 129.158 86.1229C128.794 85.9542 128.396 85.8679 127.995 85.87C127.137 85.9133 126.323 86.2618 125.7 86.8525C125.078 87.4431 124.687 88.2368 124.6 89.09L124.239 92.31H122.237C119.361 92.3915 116.633 93.6024 114.646 95.68C112.544 97.8136 111.216 100.587 110.871 103.56C110.504 106.349 111.221 109.172 112.874 111.45C113.674 112.501 114.707 113.352 115.892 113.936C117.077 114.521 118.382 114.824 119.703 114.82H121.706L120.584 124.48H111.512C110.655 124.521 109.842 124.867 109.219 125.456C108.596 126.045 108.205 126.838 108.117 127.69C108.048 128.081 108.064 128.482 108.165 128.866C108.266 129.249 108.45 129.606 108.704 129.912C108.957 130.218 109.274 130.464 109.633 130.635C109.992 130.806 110.384 130.896 110.781 130.9H119.854L119.483 134.12C119.413 134.511 119.43 134.913 119.531 135.297C119.632 135.681 119.816 136.039 120.069 136.345C120.322 136.652 120.639 136.899 120.998 137.071C121.357 137.243 121.749 137.335 122.147 137.34C123.001 137.294 123.812 136.944 124.431 136.354C125.05 135.763 125.436 134.971 125.521 134.12L125.892 130.9H127.894C130.77 130.819 133.498 129.608 135.485 127.53" fill="#CB0061"/>
<path d="M165.916 126.38L179.805 135.17" stroke="#7E0042" stroke-width="8" stroke-miterlimit="10"/>
<path d="M150.215 147.64L164.094 156.43" stroke="#7E0042" stroke-width="8" stroke-miterlimit="10"/>
<path d="M124.049 158.99L143.265 166.9" stroke="#7E0042" stroke-width="8" stroke-miterlimit="10"/>
<path d="M169.24 96.7002L183.6 108.39" stroke="#7E0042" stroke-width="8" stroke-miterlimit="10"/>
<path d="M169.792 111.6C172.776 85.32 155.162 64 130.458 64C105.754 64 83.3136 85.3 80.3296 111.6C77.3455 137.9 94.9595 159.21 119.663 159.21C144.367 159.21 166.808 137.88 169.792 111.6Z" stroke="#E066A0" stroke-width="8" stroke-miterlimit="10"/>
<mask id="mask0" mask-type="alpha" maskUnits="userSpaceOnUse" x="76" y="60" width="99" height="104">
<path d="M130.458 64C155.162 64 172.776 85.32 169.792 111.6C166.808 137.88 144.367 159.21 119.663 159.21C94.9595 159.21 77.3455 137.9 80.3296 111.6C83.3136 85.3 105.754 64 130.458 64ZM135.465 127.53C137.564 125.395 138.889 122.622 139.23 119.65C139.613 116.86 138.895 114.031 137.227 111.76C136.429 110.71 135.398 109.859 134.215 109.274C133.031 108.689 131.728 108.386 130.408 108.39H128.405L129.497 98.73H136.556C137.424 98.7031 138.252 98.363 138.887 97.7727C139.522 97.1824 139.922 96.382 140.011 95.52C140.081 95.1293 140.065 94.7281 139.963 94.3444C139.862 93.9606 139.678 93.6035 139.425 93.298C139.171 92.9924 138.854 92.7457 138.495 92.5751C138.136 92.4044 137.745 92.314 137.347 92.31H130.338L130.698 89.09C130.77 88.6953 130.755 88.2896 130.652 87.9017C130.549 87.5138 130.362 87.1533 130.104 86.8459C129.846 86.5384 129.523 86.2916 129.158 86.1229C128.794 85.9542 128.396 85.8679 127.995 85.87C127.137 85.9133 126.323 86.2618 125.7 86.8525C125.078 87.4431 124.687 88.2368 124.6 89.09L124.239 92.31H122.237C119.361 92.3915 116.633 93.6024 114.646 95.68C112.544 97.8136 111.216 100.587 110.871 103.56C110.504 106.349 111.221 109.172 112.874 111.45C113.674 112.501 114.707 113.352 115.892 113.936C117.077 114.521 118.382 114.824 119.703 114.82H121.706L120.584 124.48H111.512C110.655 124.521 109.842 124.867 109.219 125.456C108.596 126.045 108.205 126.838 108.117 127.69C108.048 128.081 108.064 128.482 108.165 128.866C108.266 129.249 108.45 129.606 108.704 129.912C108.957 130.218 109.274 130.464 109.633 130.635C109.992 130.806 110.384 130.896 110.781 130.9H119.854L119.483 134.12C119.413 134.511 119.43 134.913 119.531 135.297C119.632 135.681 119.816 136.039 120.069 136.345C120.322 136.652 120.639 136.899 120.998 137.071C121.357 137.243 121.749 137.335 122.147 137.34C123.001 137.294 123.812 136.944 124.431 136.354C125.05 135.763 125.436 134.971 125.521 134.12L125.892 130.9H127.894C130.77 130.819 133.498 129.608 135.485 127.53" fill="#CB0061"/>
<path d="M135.465 127.53C137.564 125.395 138.889 122.622 139.23 119.65C139.613 116.86 138.895 114.031 137.227 111.76C136.429 110.71 135.398 109.859 134.215 109.274C133.031 108.689 131.728 108.386 130.408 108.39H128.405L129.497 98.73H136.556C137.424 98.7031 138.252 98.363 138.887 97.7727C139.522 97.1824 139.922 96.382 140.011 95.52C140.081 95.1293 140.065 94.7281 139.963 94.3444C139.862 93.9606 139.678 93.6035 139.425 93.298C139.171 92.9924 138.854 92.7457 138.495 92.5751C138.136 92.4044 137.745 92.314 137.347 92.31H130.338L130.698 89.09C130.77 88.6953 130.755 88.2896 130.652 87.9017C130.549 87.5138 130.362 87.1533 130.104 86.8459C129.846 86.5384 129.523 86.2916 129.158 86.1229C128.794 85.9542 128.396 85.8679 127.995 85.87C127.137 85.9133 126.323 86.2618 125.7 86.8525C125.078 87.4431 124.687 88.2368 124.6 89.09L124.239 92.31H122.237C119.361 92.3915 116.633 93.6024 114.646 95.68C112.544 97.8136 111.216 100.587 110.871 103.56C110.504 106.349 111.221 109.172 112.874 111.45C113.674 112.501 114.707 113.352 115.892 113.936C117.077 114.521 118.382 114.824 119.703 114.82H121.706L120.584 124.48H111.512C110.655 124.521 109.842 124.867 109.219 125.456C108.596 126.045 108.205 126.838 108.117 127.69C108.048 128.081 108.064 128.482 108.165 128.866C108.266 129.249 108.45 129.606 108.704 129.912C108.957 130.218 109.274 130.464 109.633 130.635C109.992 130.806 110.384 130.896 110.781 130.9H119.854L119.483 134.12C119.413 134.511 119.43 134.913 119.531 135.297C119.632 135.681 119.816 136.039 120.069 136.345C120.322 136.652 120.639 136.899 120.998 137.071C121.357 137.243 121.749 137.335 122.147 137.34C123.001 137.294 123.812 136.944 124.431 136.354C125.05 135.763 125.436 134.971 125.521 134.12L125.892 130.9H127.894C130.77 130.819 133.498 129.608 135.485 127.53M130.458 64C155.162 64 172.776 85.32 169.792 111.6C166.808 137.88 144.367 159.21 119.663 159.21C94.9595 159.21 77.3455 137.9 80.3296 111.6C83.3136 85.3 105.754 64 130.458 64Z" stroke="black" stroke-width="8"/>
</mask>
<g mask="url(#mask0)">
<path opacity="0.56" d="M86.93 40.9674L62.502 72.6675L167.644 153.469L192.072 121.769L86.93 40.9674Z" fill="white"/>
<path opacity="0.56" d="M66.214 86.0031L54.4824 101.227L159.625 182.029L171.356 166.805L66.214 86.0031Z" fill="white"/>
</g>
<path d="M137.277 111.76C138.944 114.031 139.662 116.86 139.279 119.65C138.938 122.622 137.613 125.396 135.514 127.53C133.527 129.608 130.8 130.819 127.924 130.9H125.921L125.551 134.12C125.466 134.971 125.079 135.763 124.46 136.354C123.841 136.944 123.031 137.294 122.176 137.34C121.778 137.335 121.386 137.243 121.028 137.071C120.669 136.899 120.352 136.652 120.098 136.345C119.845 136.039 119.661 135.681 119.56 135.297C119.459 134.913 119.443 134.511 119.512 134.12L119.883 130.9H110.78C110.383 130.896 109.991 130.806 109.633 130.635C109.274 130.464 108.957 130.218 108.703 129.912C108.449 129.607 108.266 129.249 108.164 128.866C108.063 128.482 108.047 128.081 108.117 127.69C108.205 126.838 108.595 126.045 109.218 125.457C109.841 124.868 110.655 124.521 111.511 124.48H120.584L121.675 114.82H119.673C118.351 114.824 117.046 114.521 115.861 113.936C114.677 113.352 113.643 112.501 112.843 111.45C111.19 109.173 110.473 106.349 110.841 103.56C111.185 100.587 112.514 97.8137 114.616 95.6801C116.603 93.6026 119.33 92.3916 122.206 92.3101H124.209L124.569 89.0901C124.658 88.2321 125.052 87.4344 125.681 86.8431C126.31 86.2519 127.131 85.9064 127.994 85.8701C128.391 85.8767 128.781 85.9695 129.138 86.142C129.495 86.3144 129.811 86.5625 130.062 86.8689C130.314 87.1752 130.496 87.5326 130.595 87.9162C130.694 88.2998 130.709 88.7004 130.638 89.0901L130.277 92.3101H137.287C137.689 92.3053 138.088 92.3893 138.454 92.5561C138.82 92.7229 139.145 92.9684 139.405 93.275C139.665 93.5817 139.854 93.9419 139.959 94.33C140.064 94.7181 140.081 95.1245 140.01 95.5201C139.923 96.3706 139.534 97.1618 138.913 97.7506C138.292 98.3394 137.481 98.6868 136.626 98.7301H129.536L128.445 108.39H130.447C131.769 108.385 133.074 108.687 134.26 109.272C135.445 109.857 136.478 110.708 137.277 111.76ZM131.569 123.14C132.486 122.189 133.063 120.962 133.211 119.65C133.381 118.418 133.076 117.167 132.36 116.15C132.056 115.738 131.659 115.403 131.202 115.172C130.744 114.941 130.239 114.82 129.726 114.82H127.724L126.632 124.48H128.635C129.188 124.461 129.732 124.333 130.236 124.103C130.74 123.873 131.193 123.546 131.569 123.14ZM122.406 108.39L123.498 98.7301H121.495C120.941 98.748 120.397 98.8757 119.893 99.1057C119.39 99.3358 118.937 99.6636 118.561 100.07C117.64 101.02 117.06 102.247 116.909 103.56C116.742 104.794 117.05 106.044 117.77 107.06C118.074 107.47 118.469 107.804 118.924 108.035C119.38 108.266 119.883 108.387 120.394 108.39H122.396" fill="white"/>
</g>
<path fill-rule="evenodd" clip-rule="evenodd" d="M29.2554 50.6084C26.7675 47.4912 21.7494 49.5364 22.1493 53.5047L23.285 64.7758C23.4251 66.1671 22.8286 67.5305 21.7118 68.3718L11.2592 76.2453C8.03989 78.6703 10.0224 83.7957 14.0355 83.4232L27.0454 82.2156C28.4362 82.0865 29.7935 82.6922 30.6263 83.8136L37.3863 92.9157C39.7758 96.133 44.886 94.2281 44.5864 90.2317L43.7182 78.6506C43.6172 77.3022 44.2042 75.994 45.2787 75.1731L54.9173 67.8091C58.0551 65.4118 56.1904 60.4007 52.2488 60.6378L40.0186 61.3735C38.7196 61.4516 37.4638 60.893 36.6521 59.8759L29.2554 50.6084Z" fill="#FFD177"/>
<path fill-rule="evenodd" clip-rule="evenodd" d="M47.513 25.1381C43.5495 24.6931 41.4473 29.6876 44.5361 32.2109L48.0519 35.083C49.1348 35.9676 49.6771 37.3535 49.4822 38.7382L48.684 44.41C48.1223 48.4011 53.1484 50.6235 55.7227 47.5224L59.3719 43.1265C60.264 42.0518 61.6521 41.5203 63.0339 41.7243L67.475 42.3801C71.4396 42.9654 73.7061 38.005 70.6684 35.391L67.0933 32.3145C66.0684 31.4325 65.5584 30.0924 65.7377 28.7522L66.4376 23.5205C66.9612 19.6067 62.0993 17.3819 59.4798 20.3366L55.9021 24.3722C55.0388 25.346 53.7559 25.839 52.4627 25.6938L47.513 25.1381Z" fill="#FFD177"/>
<path fill-rule="evenodd" clip-rule="evenodd" d="M208.942 41.6084C211.43 38.4912 216.448 40.5364 216.048 44.5047L215.593 49.0216C215.453 50.4129 216.05 51.7763 217.166 52.6176L221.741 56.0638C224.961 58.4888 222.978 63.6142 218.965 63.2417L213.276 62.7137C211.886 62.5846 210.528 63.1903 209.695 64.3116L207.019 67.9157C204.629 71.133 199.519 69.2281 199.819 65.2317L200.171 60.5284C200.272 59.1799 199.685 57.8717 198.611 57.0508L194.417 53.8464C191.279 51.4492 193.144 46.438 197.085 46.6751L202.469 46.9989C203.768 47.0771 205.023 46.5184 205.835 45.5014L208.942 41.6084Z" fill="#FFD177"/>
<defs>
<filter id="filter0_d" x="76.002" y="60" width="115.997" height="120.001" filterUnits="userSpaceOnUse" color-interpolation-filters="sRGB">
<feFlood flood-opacity="0" result="BackgroundImageFix"/>
<feColorMatrix in="SourceAlpha" type="matrix" values="0 0 0 0 0 0 0 0 0 0 0 0 0 0 0 0 0 0 127 0" result="hardAlpha"/>
<feOffset dx="4" dy="8"/>
<feComposite in2="hardAlpha" operator="out"/>
<feColorMatrix type="matrix" values="0 0 0 0 0.301961 0 0 0 0 0.117647 0 0 0 0 0.329412 0 0 0 0.16 0"/>
<feBlend mode="normal" in2="BackgroundImageFix" result="effect1_dropShadow"/>
<feBlend mode="normal" in="SourceGraphic" in2="effect1_dropShadow" result="shape"/>
</filter>
</defs>
</svg>
